<svg id="Layer_1" data-name="Layer 1" xmlns="http://www.w3.org/2000/svg" xmlns:xlink="http://www.w3.org/1999/xlink" viewBox="0 0 800 600"><defs><style>.cls-1{fill:none;}.cls-2{clip-path:url(#clip-path);}.cls-3{fill:#e3051b;}.cls-4{fill:#fff;}</style><clipPath id="clip-path"><rect class="cls-1" y="193.54" width="800" height="212.99"/></clipPath></defs><title>tunstallLogowhite-bg-centre</title><g class="cls-2"><path class="cls-3" d="M34.71,193.54A34.75,34.75,0,0,0,0,228.25V371.81a34.75,34.75,0,0,0,34.71,34.72H765.29A34.75,34.75,0,0,0,800,371.81V228.25a34.75,34.75,0,0,0-34.71-34.71Z"/></g><polygon class="cls-4" points="89.02 353.19 118.23 353.19 118.23 266.15 158.14 266.15 158.14 245.67 49.11 245.67 49.11 266.15 89.02 266.15 89.02 353.19"/><g class="cls-2"><path class="cls-4" d="M232,353.19h25.6V272.48h-26.5v40.35c0,14.91-8.13,22.9-22.44,22.9-12.2,0-18.07-5.43-18.07-16.57V272.48H164.06v54.66c0,23.79,20.94,29.06,34.65,29.06,15.5,0,28.15-7.08,33-13.85H232Z"/><path class="cls-4" d="M340.92,353.19h26.5V299.43c0-23.79-20.93-29.06-34.63-29.06-15.51,0-28.16,7.07-33,13.85h-.3V272.48h-25.6v80.71h26.5v-39c0-17.17,10.4-23.34,22.74-23.34,11.89,0,17.77,5.42,17.77,16.56Z"/><path class="cls-4" d="M379.14,328.19c1.36,19.13,16.86,28,47.43,28,23.05,0,49.85-3.31,49.85-27.25,0-14-8.73-22-35.69-24.85l-18.38-2c-11.44-1.2-13.39-3.76-13.39-7.53,0-8,10.39-8.58,17.31-8.58,7.68,0,16.41,2.4,17.93,10.69h29.21c-1.81-15.06-10.54-27.25-47.73-27.25-22,0-44.13,5.26-44.13,27.1,0,15.36,9.63,20.63,26.5,22.89l24.1,3.31c12.8,1.81,15.06,3.61,15.06,8.13,0,5.88-7.09,8.74-19.13,8.74-13.7,0-18.52-4.52-19.72-11.45Z"/><path class="cls-4" d="M500,272.48H483.31v17.76H500v40.81c0,14.6,2.41,23.95,27.57,23.95,5.87,0,15.8-.91,20.77-1.51V335.72c-4.21.3-8.28.61-13,.61-6.93,0-8.89-2.11-8.89-8.44V290.24h21.39V272.48H526.52v-25H500Z"/><path class="cls-4" d="M590.72,297.17c3.78-11.14,9.65-12.05,20.94-12.05,15.37,0,20.78,3.17,20.78,9.64s-2.71,7.83-10.83,8.43l-28.17,2C577.33,306.21,560,310.42,560,330c0,18.82,14.77,26.2,35.84,26.2,11.89,0,28.76-2.56,37.8-11.59a34.15,34.15,0,0,0,1.81,8.58H662c-1.81-4.07-3-9.19-3-16.26V296.87c0-15.06-8.12-27.4-46.07-27.4-21.68,0-44.57,2.86-47.74,27.7Zm42.63,23.34c0,13.56-14.91,20-28.31,20-9.94,0-16.72-4.07-16.72-11.29s4.67-9.79,14-10.55l15.36-1.35c5.27-.45,10.69-1.06,15.66-3.46Z"/></g><rect class="cls-4" x="674.67" y="243.86" width="26.51" height="109.32"/><rect class="cls-4" x="717.51" y="243.86" width="26.51" height="109.32"/></svg>